<svg xmlns="http://www.w3.org/2000/svg" viewBox="0 0 64 64"><rect width="64" height="64" rx="16" fill="#eff6ff"/><path d="M20.5 9.5c6-4 12.5 1 15.2 4.2 3.7-1.8 10.4-4.3 17 .8 8.4 6.5 4.5 22.4.8 30.2-2.5 5.2-2.6 14.5-8.6 14.5-4.4 0-4.8-7.2-5.8-12.3-1.1-5.6-3.5-10.3-7.1-10.3s-6 4.7-7.1 10.3c-1 5.1-1.4 12.3-5.8 12.3-6 0-6.1-9.3-8.6-14.5C6.8 37 2.1 19.1 20.5 9.5Z" fill="white" stroke="#2563eb" stroke-width="4" stroke-linecap="round" stroke-linejoin="round"/><circle cx="24" cy="29" r="3.2" fill="#2563eb"/><circle cx="40" cy="29" r="3.2" fill="#2563eb"/><path d="M26 39c3.5 3.5 8.5 3.5 12 0" fill="none" stroke="#2563eb" stroke-width="4" stroke-linecap="round"/></svg>